<svg xmlns="http://www.w3.org/2000/svg" xmlns:xlink="http://www.w3.org/1999/xlink" width="500" zoomAndPan="magnify" viewBox="0 0 375 374.999991" height="500" preserveAspectRatio="xMidYMid meet" version="1.0"><defs><g/><radialGradient gradientTransform="matrix(1, 0, 0, 1, 0.0000045, 0)" gradientUnits="userSpaceOnUse" r="265.165051" cx="187.499996" id="bc49e9cb8e" cy="187.499996" fx="187.499996" fy="187.499996"><stop stop-opacity="1" stop-color="rgb(69.735718%, 54.380798%, 57.269287%)" offset="0"/><stop stop-opacity="1" stop-color="rgb(69.578552%, 54.086304%, 57.196045%)" offset="0.0078125"/><stop stop-opacity="1" stop-color="rgb(69.390869%, 53.7323%, 57.10907%)" offset="0.0195312"/><stop stop-opacity="1" stop-color="rgb(69.20166%, 53.378296%, 57.020569%)" offset="0.03125"/><stop stop-opacity="1" stop-color="rgb(69.012451%, 53.024292%, 56.932068%)" offset="0.0429688"/><stop stop-opacity="1" stop-color="rgb(68.824768%, 52.670288%, 56.845093%)" offset="0.0546875"/><stop stop-opacity="1" stop-color="rgb(68.635559%, 52.316284%, 56.756592%)" offset="0.0664062"/><stop stop-opacity="1" stop-color="rgb(68.44635%, 51.96228%, 56.669617%)" offset="0.078125"/><stop stop-opacity="1" stop-color="rgb(68.258667%, 51.608276%, 56.581116%)" offset="0.0898438"/><stop stop-opacity="1" stop-color="rgb(68.069458%, 51.255798%, 56.492615%)" offset="0.101562"/><stop stop-opacity="1" stop-color="rgb(67.880249%, 50.901794%, 56.40564%)" offset="0.113281"/><stop stop-opacity="1" stop-color="rgb(67.692566%, 50.547791%, 56.317139%)" offset="0.125"/><stop stop-opacity="1" stop-color="rgb(67.503357%, 50.193787%, 56.230164%)" offset="0.136719"/><stop stop-opacity="1" stop-color="rgb(67.314148%, 49.839783%, 56.141663%)" offset="0.148438"/><stop stop-opacity="1" stop-color="rgb(67.126465%, 49.485779%, 56.053162%)" offset="0.160156"/><stop stop-opacity="1" stop-color="rgb(66.937256%, 49.131775%, 55.966187%)" offset="0.171875"/><stop stop-opacity="1" stop-color="rgb(66.748047%, 48.777771%, 55.877686%)" offset="0.183594"/><stop stop-opacity="1" stop-color="rgb(66.560364%, 48.423767%, 55.79071%)" offset="0.195312"/><stop stop-opacity="1" stop-color="rgb(66.371155%, 48.069763%, 55.702209%)" offset="0.207031"/><stop stop-opacity="1" stop-color="rgb(66.183472%, 47.715759%, 55.613708%)" offset="0.21875"/><stop stop-opacity="1" stop-color="rgb(65.994263%, 47.361755%, 55.526733%)" offset="0.230469"/><stop stop-opacity="1" stop-color="rgb(65.805054%, 47.007751%, 55.438232%)" offset="0.242188"/><stop stop-opacity="1" stop-color="rgb(65.647888%, 46.713257%, 55.36499%)" offset="0.253906"/><stop stop-opacity="1" stop-color="rgb(65.522766%, 46.476746%, 55.307007%)" offset="0.261719"/><stop stop-opacity="1" stop-color="rgb(65.396118%, 46.240234%, 55.247498%)" offset="0.269531"/><stop stop-opacity="1" stop-color="rgb(65.270996%, 46.005249%, 55.189514%)" offset="0.277344"/><stop stop-opacity="1" stop-color="rgb(65.144348%, 45.768738%, 55.131531%)" offset="0.285156"/><stop stop-opacity="1" stop-color="rgb(65.019226%, 45.533752%, 55.072021%)" offset="0.292969"/><stop stop-opacity="1" stop-color="rgb(64.894104%, 45.297241%, 55.014038%)" offset="0.300781"/><stop stop-opacity="1" stop-color="rgb(64.767456%, 45.06073%, 54.954529%)" offset="0.308594"/><stop stop-opacity="1" stop-color="rgb(64.642334%, 44.825745%, 54.896545%)" offset="0.316406"/><stop stop-opacity="1" stop-color="rgb(64.515686%, 44.589233%, 54.838562%)" offset="0.324219"/><stop stop-opacity="1" stop-color="rgb(64.390564%, 44.352722%, 54.779053%)" offset="0.332031"/><stop stop-opacity="1" stop-color="rgb(64.263916%, 44.117737%, 54.721069%)" offset="0.339844"/><stop stop-opacity="1" stop-color="rgb(64.138794%, 43.881226%, 54.66156%)" offset="0.347656"/><stop stop-opacity="1" stop-color="rgb(64.013672%, 43.64624%, 54.603577%)" offset="0.355469"/><stop stop-opacity="1" stop-color="rgb(63.887024%, 43.409729%, 54.545593%)" offset="0.363281"/><stop stop-opacity="1" stop-color="rgb(63.761902%, 43.173218%, 54.486084%)" offset="0.371094"/><stop stop-opacity="1" stop-color="rgb(63.635254%, 42.938232%, 54.428101%)" offset="0.378906"/><stop stop-opacity="1" stop-color="rgb(63.510132%, 42.701721%, 54.368591%)" offset="0.386719"/><stop stop-opacity="1" stop-color="rgb(63.383484%, 42.46521%, 54.310608%)" offset="0.394531"/><stop stop-opacity="1" stop-color="rgb(63.258362%, 42.230225%, 54.252625%)" offset="0.402344"/><stop stop-opacity="1" stop-color="rgb(63.13324%, 41.993713%, 54.193115%)" offset="0.410156"/><stop stop-opacity="1" stop-color="rgb(63.006592%, 41.758728%, 54.135132%)" offset="0.417969"/><stop stop-opacity="1" stop-color="rgb(62.88147%, 41.522217%, 54.075623%)" offset="0.425781"/><stop stop-opacity="1" stop-color="rgb(62.754822%, 41.285706%, 54.017639%)" offset="0.433594"/><stop stop-opacity="1" stop-color="rgb(62.6297%, 41.05072%, 53.959656%)" offset="0.441406"/><stop stop-opacity="1" stop-color="rgb(62.503052%, 40.814209%, 53.900146%)" offset="0.449219"/><stop stop-opacity="1" stop-color="rgb(62.37793%, 40.577698%, 53.842163%)" offset="0.457031"/><stop stop-opacity="1" stop-color="rgb(62.251282%, 40.342712%, 53.782654%)" offset="0.464844"/><stop stop-opacity="1" stop-color="rgb(62.12616%, 40.106201%, 53.72467%)" offset="0.472656"/><stop stop-opacity="1" stop-color="rgb(62.001038%, 39.871216%, 53.666687%)" offset="0.480469"/><stop stop-opacity="1" stop-color="rgb(61.87439%, 39.634705%, 53.607178%)" offset="0.488281"/><stop stop-opacity="1" stop-color="rgb(61.749268%, 39.398193%, 53.549194%)" offset="0.496094"/><stop stop-opacity="1" stop-color="rgb(61.592102%, 39.103699%, 53.475952%)" offset="0.503906"/><stop stop-opacity="1" stop-color="rgb(61.402893%, 38.749695%, 53.387451%)" offset="0.515625"/><stop stop-opacity="1" stop-color="rgb(61.213684%, 38.397217%, 53.300476%)" offset="0.527344"/><stop stop-opacity="1" stop-color="rgb(61.026001%, 38.043213%, 53.211975%)" offset="0.539062"/><stop stop-opacity="1" stop-color="rgb(60.836792%, 37.689209%, 53.123474%)" offset="0.550781"/><stop stop-opacity="1" stop-color="rgb(60.649109%, 37.335205%, 53.036499%)" offset="0.5625"/><stop stop-opacity="1" stop-color="rgb(60.4599%, 36.981201%, 52.947998%)" offset="0.574219"/><stop stop-opacity="1" stop-color="rgb(60.270691%, 36.627197%, 52.861023%)" offset="0.585938"/><stop stop-opacity="1" stop-color="rgb(60.083008%, 36.273193%, 52.772522%)" offset="0.597656"/><stop stop-opacity="1" stop-color="rgb(59.893799%, 35.919189%, 52.684021%)" offset="0.609375"/><stop stop-opacity="1" stop-color="rgb(59.70459%, 35.565186%, 52.597046%)" offset="0.621094"/><stop stop-opacity="1" stop-color="rgb(59.547424%, 35.269165%, 52.523804%)" offset="0.632812"/><stop stop-opacity="1" stop-color="rgb(59.422302%, 35.03418%, 52.464294%)" offset="0.640625"/><stop stop-opacity="1" stop-color="rgb(59.295654%, 34.797668%, 52.406311%)" offset="0.648438"/><stop stop-opacity="1" stop-color="rgb(59.170532%, 34.562683%, 52.348328%)" offset="0.65625"/><stop stop-opacity="1" stop-color="rgb(59.043884%, 34.326172%, 52.288818%)" offset="0.664062"/><stop stop-opacity="1" stop-color="rgb(58.918762%, 34.089661%, 52.230835%)" offset="0.671875"/><stop stop-opacity="1" stop-color="rgb(58.79364%, 33.854675%, 52.171326%)" offset="0.679688"/><stop stop-opacity="1" stop-color="rgb(58.666992%, 33.618164%, 52.113342%)" offset="0.6875"/><stop stop-opacity="1" stop-color="rgb(58.54187%, 33.381653%, 52.055359%)" offset="0.695312"/><stop stop-opacity="1" stop-color="rgb(58.415222%, 33.146667%, 51.99585%)" offset="0.703125"/><stop stop-opacity="1" stop-color="rgb(58.2901%, 32.910156%, 51.937866%)" offset="0.710938"/><stop stop-opacity="1" stop-color="rgb(58.163452%, 32.675171%, 51.878357%)" offset="0.71875"/><stop stop-opacity="1" stop-color="rgb(58.03833%, 32.43866%, 51.820374%)" offset="0.726562"/><stop stop-opacity="1" stop-color="rgb(57.913208%, 32.202148%, 51.76239%)" offset="0.734375"/><stop stop-opacity="1" stop-color="rgb(57.78656%, 31.967163%, 51.702881%)" offset="0.742188"/><stop stop-opacity="1" stop-color="rgb(57.661438%, 31.730652%, 51.644897%)" offset="0.75"/><stop stop-opacity="1" stop-color="rgb(57.504272%, 31.436157%, 51.571655%)" offset="0.757812"/><stop stop-opacity="1" stop-color="rgb(57.315063%, 31.082153%, 51.483154%)" offset="0.769531"/><stop stop-opacity="1" stop-color="rgb(57.125854%, 30.728149%, 51.396179%)" offset="0.78125"/><stop stop-opacity="1" stop-color="rgb(56.938171%, 30.374146%, 51.307678%)" offset="0.792969"/><stop stop-opacity="1" stop-color="rgb(56.748962%, 30.020142%, 51.219177%)" offset="0.804688"/><stop stop-opacity="1" stop-color="rgb(56.591797%, 29.725647%, 51.145935%)" offset="0.816406"/><stop stop-opacity="1" stop-color="rgb(56.466675%, 29.489136%, 51.087952%)" offset="0.824219"/><stop stop-opacity="1" stop-color="rgb(56.340027%, 29.25415%, 51.029968%)" offset="0.832031"/><stop stop-opacity="1" stop-color="rgb(56.214905%, 29.017639%, 50.970459%)" offset="0.839844"/><stop stop-opacity="1" stop-color="rgb(56.088257%, 28.781128%, 50.912476%)" offset="0.847656"/><stop stop-opacity="1" stop-color="rgb(55.963135%, 28.546143%, 50.852966%)" offset="0.855469"/><stop stop-opacity="1" stop-color="rgb(55.836487%, 28.309631%, 50.794983%)" offset="0.863281"/><stop stop-opacity="1" stop-color="rgb(55.711365%, 28.07312%, 50.737%)" offset="0.871094"/><stop stop-opacity="1" stop-color="rgb(55.554199%, 27.778625%, 50.663757%)" offset="0.878906"/><stop stop-opacity="1" stop-color="rgb(55.36499%, 27.424622%, 50.575256%)" offset="0.890625"/><stop stop-opacity="1" stop-color="rgb(55.177307%, 27.072144%, 50.486755%)" offset="0.902344"/><stop stop-opacity="1" stop-color="rgb(55.020142%, 26.776123%, 50.413513%)" offset="0.914062"/><stop stop-opacity="1" stop-color="rgb(54.893494%, 26.539612%, 50.35553%)" offset="0.921875"/><stop stop-opacity="1" stop-color="rgb(54.768372%, 26.304626%, 50.297546%)" offset="0.929688"/><stop stop-opacity="1" stop-color="rgb(54.641724%, 26.068115%, 50.238037%)" offset="0.9375"/><stop stop-opacity="1" stop-color="rgb(54.484558%, 25.773621%, 50.164795%)" offset="0.945312"/><stop stop-opacity="1" stop-color="rgb(54.327393%, 25.479126%, 50.091553%)" offset="0.957031"/><stop stop-opacity="1" stop-color="rgb(54.202271%, 25.242615%, 50.033569%)" offset="0.964844"/><stop stop-opacity="1" stop-color="rgb(54.045105%, 24.94812%, 49.960327%)" offset="0.972656"/><stop stop-opacity="1" stop-color="rgb(53.887939%, 24.6521%, 49.887085%)" offset="0.984375"/><stop stop-opacity="1" stop-color="rgb(53.761292%, 24.417114%, 49.827576%)" offset="0.992188"/><stop stop-opacity="1" stop-color="rgb(53.69873%, 24.299622%, 49.798584%)" offset="1"/></radialGradient><clipPath id="c552099179"><path d="M 161.339844 114.277344 L 282.855469 114.277344 L 282.855469 260.722656 L 161.339844 260.722656 Z M 161.339844 114.277344 " clip-rule="nonzero"/></clipPath></defs><rect x="-37.5" fill="url(#bc49e9cb8e)" width="450" y="-37.499999" height="449.999989"/><g clip-path="url(#c552099179)"><path fill="#000000" d="M 161.339844 114.277344 L 282.855469 114.277344 L 282.855469 260.722656 L 161.339844 260.722656 Z M 161.339844 114.277344 " fill-opacity="1" fill-rule="nonzero"/></g><g fill="#000000" fill-opacity="1"><g transform="translate(25.918109, 232.106015)"><g><path d="M 49.96875 -72.21875 C 50.882812 -64.863281 50.726562 -57.992188 49.5 -51.609375 C 48.269531 -45.234375 46.070312 -39.207031 42.90625 -33.53125 C 39.738281 -27.851562 35.738281 -22.34375 30.90625 -17 C 30.457031 -16.550781 30.234375 -16.15625 30.234375 -15.8125 C 30.234375 -15.476562 30.457031 -15.054688 30.90625 -14.546875 C 31.882812 -13.210938 32.941406 -11.9375 34.078125 -10.71875 C 35.210938 -9.507812 36.523438 -8.492188 38.015625 -7.671875 C 39.140625 -6.429688 39.316406 -5.609375 38.546875 -5.203125 C 37.773438 -4.796875 36.347656 -5.039062 34.265625 -5.9375 C 32.191406 -6.832031 29.785156 -8.71875 27.046875 -11.59375 C 26.535156 -12.226562 25.953125 -12.3125 25.296875 -11.84375 C 24.578125 -11.332031 23.851562 -10.84375 23.125 -10.375 C 22.46875 -9.90625 21.828125 -9.445312 21.203125 -9 C 19.046875 -7.507812 16.734375 -6.25 14.265625 -5.21875 C 11.691406 -4.070312 8.992188 -3.628906 6.171875 -3.890625 C 1.796875 -4.398438 -0.457031 -6.84375 -0.59375 -11.21875 C -0.707031 -14.300781 -0.0820312 -17.0625 1.28125 -19.5 C 2.644531 -21.9375 4.546875 -23.734375 6.984375 -24.890625 C 9.429688 -26.046875 12.242188 -26.273438 15.421875 -25.578125 C 15.835938 -25.503906 16.328125 -25.398438 16.890625 -25.265625 C 17.242188 -25.210938 17.675781 -25.109375 18.1875 -24.953125 C 17.832031 -25.671875 17.53125 -26.3125 17.28125 -26.875 C 16.851562 -27.851562 16.46875 -28.707031 16.125 -29.4375 C 14.019531 -33.800781 12.296875 -38.8125 10.953125 -44.46875 C 9.609375 -50.125 8.9375 -55.890625 8.9375 -61.765625 C 8.9375 -67.640625 9.925781 -73.125 11.90625 -78.21875 C 13.894531 -83.3125 17.144531 -87.503906 21.65625 -90.796875 C 24.476562 -92.734375 27.429688 -93.78125 30.515625 -93.9375 C 33.597656 -94.101562 36.488281 -93.4375 39.1875 -91.9375 C 41.882812 -90.445312 44.113281 -88.207031 45.875 -85.21875 C 48.09375 -81.175781 49.457031 -76.84375 49.96875 -72.21875 Z M 20.671875 -14.015625 C 21.328125 -14.523438 21.398438 -15.132812 20.890625 -15.84375 C 20.578125 -16.164062 20.25 -16.523438 19.90625 -16.921875 C 19.082031 -17.953125 18.140625 -19.007812 17.078125 -20.09375 C 16.015625 -21.175781 14.894531 -22.007812 13.71875 -22.59375 C 12.539062 -23.1875 11.367188 -23.222656 10.203125 -22.703125 C 8.585938 -21.929688 7.253906 -20.570312 6.203125 -18.625 C 5.148438 -16.675781 4.523438 -14.671875 4.328125 -12.609375 C 4.128906 -10.554688 4.515625 -8.992188 5.484375 -7.921875 C 6.453125 -6.847656 8.148438 -6.765625 10.578125 -7.671875 C 14.222656 -9.265625 17.585938 -11.378906 20.671875 -14.015625 Z M 28.453125 -21.71875 C 33.429688 -27.46875 37.128906 -33.15625 39.546875 -38.78125 C 41.960938 -44.414062 43.640625 -51.007812 44.578125 -58.5625 C 44.785156 -60.40625 44.890625 -62.832031 44.890625 -65.84375 C 44.890625 -68.851562 44.613281 -71.976562 44.0625 -75.21875 C 43.507812 -78.457031 42.566406 -81.410156 41.234375 -84.078125 C 39.910156 -86.753906 38.050781 -88.679688 35.65625 -89.859375 C 33.257812 -91.046875 30.21875 -91.039062 26.53125 -89.84375 C 22.375 -87.488281 19.316406 -84.304688 17.359375 -80.296875 C 15.410156 -76.285156 14.289062 -71.835938 14 -66.953125 C 13.707031 -62.078125 14.023438 -57.09375 14.953125 -52 C 15.890625 -46.90625 17.175781 -42.070312 18.8125 -37.5 C 20.445312 -32.9375 22.203125 -28.960938 24.078125 -25.578125 C 24.328125 -25.160156 24.546875 -24.738281 24.734375 -24.3125 C 25.316406 -22.988281 26.148438 -21.765625 27.234375 -20.640625 C 27.367188 -20.734375 27.519531 -20.835938 27.6875 -20.953125 C 27.988281 -21.140625 28.242188 -21.394531 28.453125 -21.71875 Z M 28.453125 -21.71875 "/></g></g></g><g fill="#000000" fill-opacity="1"><g transform="translate(68.837319, 232.106015)"><g><path d="M 31.1875 -16.78125 C 31.65625 -17.039062 32.125 -17.234375 32.59375 -17.359375 C 33.0625 -17.492188 33.359375 -17.484375 33.484375 -17.328125 C 33.609375 -17.171875 33.414062 -16.78125 32.90625 -16.15625 C 31.25 -14.3125 29.300781 -12.628906 27.0625 -11.109375 C 24.832031 -9.585938 22.5625 -8.289062 20.25 -7.21875 C 18.40625 -6.394531 16.453125 -5.738281 14.390625 -5.25 C 12.335938 -4.757812 10.304688 -4.65625 8.296875 -4.9375 C 6.296875 -5.21875 4.476562 -6.109375 2.84375 -7.609375 C 0.875 -9.566406 -0.191406 -12.054688 -0.359375 -15.078125 C -0.535156 -18.109375 0.164062 -20.648438 1.75 -22.703125 C 3.851562 -25.066406 6.507812 -26.585938 9.71875 -27.265625 C 12.9375 -27.941406 15.828125 -27.425781 18.390625 -25.71875 C 19.628906 -24.851562 20.128906 -23.84375 19.890625 -22.6875 C 19.660156 -21.53125 19.046875 -20.445312 18.046875 -19.4375 C 17.046875 -18.4375 15.925781 -17.679688 14.6875 -17.171875 C 12.84375 -16.441406 11.1875 -16.289062 9.71875 -16.71875 C 8.257812 -17.15625 7.125 -17.738281 6.3125 -18.46875 C 5.726562 -18.257812 5.363281 -17.441406 5.21875 -16.015625 C 4.84375 -13.328125 5.6875 -11.144531 7.75 -9.46875 C 9.445312 -8.175781 11.59375 -7.820312 14.1875 -8.40625 C 16.78125 -8.988281 19.4375 -10.015625 22.15625 -11.484375 C 24.882812 -12.960938 27.3125 -14.367188 29.4375 -15.703125 C 30.09375 -16.046875 30.675781 -16.40625 31.1875 -16.78125 Z M 14.15625 -23.546875 C 13.851562 -23.960938 13.347656 -24.128906 12.640625 -24.046875 C 11.941406 -23.972656 11.222656 -23.757812 10.484375 -23.40625 C 9.753906 -23.050781 9.113281 -22.679688 8.5625 -22.296875 C 8.019531 -21.910156 7.78125 -21.640625 7.84375 -21.484375 C 7.84375 -21.390625 7.90625 -21.222656 8.03125 -20.984375 C 8.164062 -20.753906 8.359375 -20.507812 8.609375 -20.25 C 8.867188 -20 9.210938 -19.816406 9.640625 -19.703125 C 10.078125 -19.597656 10.632812 -19.628906 11.3125 -19.796875 C 12.394531 -20.097656 13.148438 -20.492188 13.578125 -20.984375 C 14.015625 -21.472656 14.257812 -21.957031 14.3125 -22.4375 C 14.375 -22.914062 14.320312 -23.285156 14.15625 -23.546875 Z M 14.15625 -23.546875 "/></g></g></g><g fill="#000000" fill-opacity="1"><g transform="translate(98.512888, 232.106015)"><g><path d="M 10.375 -12.75 C 11.164062 -11.726562 11.675781 -10.664062 11.90625 -9.5625 C 12.144531 -8.46875 12.234375 -7.273438 12.171875 -5.984375 C 12.117188 -4.703125 11.707031 -3.554688 10.9375 -2.546875 C 10.164062 -1.546875 8.878906 -0.941406 7.078125 -0.734375 C 5.273438 -0.597656 3.664062 -0.875 2.25 -1.5625 C 0.84375 -2.25 -0.0390625 -3.242188 -0.40625 -4.546875 C -0.769531 -5.859375 -0.332031 -7.390625 0.90625 -9.140625 C 1.726562 -10.128906 2.710938 -10.984375 3.859375 -11.703125 C 4.253906 -11.960938 4.660156 -12.242188 5.078125 -12.546875 C 3.703125 -14.035156 2.394531 -15.5625 1.15625 -17.125 C -0.0820312 -18.695312 -0.875 -20.101562 -1.21875 -21.34375 C -1.59375 -22.769531 -1.351562 -24.113281 -0.5 -25.375 C 0.34375 -26.632812 1.816406 -27.367188 3.921875 -27.578125 C 4.953125 -27.671875 5.914062 -27.617188 6.8125 -27.421875 C 7.71875 -27.222656 8.554688 -26.785156 9.328125 -26.109375 C 9.484375 -25.941406 9.597656 -25.757812 9.671875 -25.5625 C 9.742188 -25.363281 9.707031 -25.113281 9.5625 -24.8125 C 9.3125 -24.34375 8.925781 -24.109375 8.40625 -24.109375 C 8.03125 -24.109375 7.671875 -24.15625 7.328125 -24.25 C 6.953125 -24.414062 6.613281 -24.566406 6.3125 -24.703125 C 6.09375 -24.816406 5.894531 -24.921875 5.71875 -25.015625 C 5.039062 -25.273438 4.519531 -25.238281 4.15625 -24.90625 C 3.789062 -24.582031 3.609375 -24.082031 3.609375 -23.40625 C 3.648438 -22.21875 4.140625 -20.945312 5.078125 -19.59375 C 6.015625 -18.238281 6.9375 -16.988281 7.84375 -15.84375 C 8.21875 -15.445312 8.535156 -15.0625 8.796875 -14.6875 C 9.054688 -14.425781 9.582031 -13.78125 10.375 -12.75 Z M 5.609375 -3.359375 C 6.285156 -3.410156 6.726562 -3.785156 6.9375 -4.484375 C 7.144531 -5.179688 7.21875 -5.953125 7.15625 -6.796875 C 7.101562 -7.640625 7.054688 -8.269531 7.015625 -8.6875 C 6.921875 -8.945312 6.753906 -9.109375 6.515625 -9.171875 C 6.285156 -9.242188 6.066406 -9.234375 5.859375 -9.140625 C 5.085938 -8.535156 4.519531 -7.765625 4.15625 -6.828125 C 3.789062 -5.898438 3.816406 -5.082031 4.234375 -4.375 C 4.378906 -4.125 4.566406 -3.90625 4.796875 -3.71875 C 5.035156 -3.53125 5.304688 -3.410156 5.609375 -3.359375 Z M 5.609375 -3.359375 "/></g></g></g><g fill="#000000" fill-opacity="1"><g transform="translate(113.858694, 232.106015)"><g><path d="M 10.375 -12.75 C 11.164062 -11.726562 11.675781 -10.664062 11.90625 -9.5625 C 12.144531 -8.46875 12.234375 -7.273438 12.171875 -5.984375 C 12.117188 -4.703125 11.707031 -3.554688 10.9375 -2.546875 C 10.164062 -1.546875 8.878906 -0.941406 7.078125 -0.734375 C 5.273438 -0.597656 3.664062 -0.875 2.25 -1.5625 C 0.84375 -2.25 -0.0390625 -3.242188 -0.40625 -4.546875 C -0.769531 -5.859375 -0.332031 -7.390625 0.90625 -9.140625 C 1.726562 -10.128906 2.710938 -10.984375 3.859375 -11.703125 C 4.253906 -11.960938 4.660156 -12.242188 5.078125 -12.546875 C 3.703125 -14.035156 2.394531 -15.5625 1.15625 -17.125 C -0.0820312 -18.695312 -0.875 -20.101562 -1.21875 -21.34375 C -1.59375 -22.769531 -1.351562 -24.113281 -0.5 -25.375 C 0.34375 -26.632812 1.816406 -27.367188 3.921875 -27.578125 C 4.953125 -27.671875 5.914062 -27.617188 6.8125 -27.421875 C 7.71875 -27.222656 8.554688 -26.785156 9.328125 -26.109375 C 9.484375 -25.941406 9.597656 -25.757812 9.671875 -25.5625 C 9.742188 -25.363281 9.707031 -25.113281 9.5625 -24.8125 C 9.3125 -24.34375 8.925781 -24.109375 8.40625 -24.109375 C 8.03125 -24.109375 7.671875 -24.15625 7.328125 -24.25 C 6.953125 -24.414062 6.613281 -24.566406 6.3125 -24.703125 C 6.09375 -24.816406 5.894531 -24.921875 5.71875 -25.015625 C 5.039062 -25.273438 4.519531 -25.238281 4.15625 -24.90625 C 3.789062 -24.582031 3.609375 -24.082031 3.609375 -23.40625 C 3.648438 -22.21875 4.140625 -20.945312 5.078125 -19.59375 C 6.015625 -18.238281 6.9375 -16.988281 7.84375 -15.84375 C 8.21875 -15.445312 8.535156 -15.0625 8.796875 -14.6875 C 9.054688 -14.425781 9.582031 -13.78125 10.375 -12.75 Z M 5.609375 -3.359375 C 6.285156 -3.410156 6.726562 -3.785156 6.9375 -4.484375 C 7.144531 -5.179688 7.21875 -5.953125 7.15625 -6.796875 C 7.101562 -7.640625 7.054688 -8.269531 7.015625 -8.6875 C 6.921875 -8.945312 6.753906 -9.109375 6.515625 -9.171875 C 6.285156 -9.242188 6.066406 -9.234375 5.859375 -9.140625 C 5.085938 -8.535156 4.519531 -7.765625 4.15625 -6.828125 C 3.789062 -5.898438 3.816406 -5.082031 4.234375 -4.375 C 4.378906 -4.125 4.566406 -3.90625 4.796875 -3.71875 C 5.035156 -3.53125 5.304688 -3.410156 5.609375 -3.359375 Z M 5.609375 -3.359375 "/></g></g></g><g fill="#000000" fill-opacity="1"><g transform="translate(129.204499, 232.106015)"><g><path d="M 20.046875 -23.15625 C 21.117188 -23.28125 21.863281 -23.082031 22.28125 -22.5625 C 22.632812 -22 22.785156 -20.046875 22.734375 -16.703125 C 22.691406 -13.367188 22.53125 -9.488281 22.25 -5.0625 C 21.96875 -0.632812 21.644531 3.460938 21.28125 7.234375 C 20.925781 11.003906 20.640625 13.640625 20.421875 15.140625 C 18.929688 23.710938 16.257812 30.878906 12.40625 36.640625 C 8.550781 42.398438 4.148438 46.847656 -0.796875 49.984375 C -5.753906 53.128906 -10.640625 55.035156 -15.453125 55.703125 C -20.265625 56.367188 -24.351562 55.898438 -27.71875 54.296875 C -31.082031 52.691406 -33.082031 50.023438 -33.71875 46.296875 C -34.363281 42.578125 -33.015625 37.890625 -29.671875 32.234375 C -26.335938 26.585938 -20.382812 20.070312 -11.8125 12.6875 C -8.394531 9.851562 -3.671875 6.425781 2.359375 2.40625 C 8.398438 -1.601562 13.1875 -4.320312 16.71875 -5.75 C 16.78125 -6.425781 16.835938 -7.148438 16.890625 -7.921875 C 15.441406 -6.265625 13.957031 -5.304688 12.4375 -5.046875 C 10.914062 -4.785156 9.515625 -4.757812 8.234375 -4.96875 C 8.140625 -4.96875 8.070312 -4.96875 8.03125 -4.96875 C 5.71875 -5.28125 3.90625 -6.351562 2.59375 -8.1875 C 1.28125 -10.019531 0.441406 -12.101562 0.078125 -14.4375 C -0.273438 -16.769531 -0.175781 -18.859375 0.375 -20.703125 C 0.9375 -22.554688 1.992188 -23.664062 3.546875 -24.03125 C 4.171875 -24.125 4.867188 -24.179688 5.640625 -24.203125 C 6.410156 -24.234375 7.050781 -24.148438 7.5625 -23.953125 C 8.082031 -23.753906 8.285156 -23.335938 8.171875 -22.703125 C 7.648438 -20.859375 7.351562 -18.820312 7.28125 -16.59375 C 7.21875 -14.363281 7.410156 -12.410156 7.859375 -10.734375 C 8.316406 -9.066406 9.132812 -8.164062 10.3125 -8.03125 C 11.5 -7.90625 13.097656 -9 15.109375 -11.3125 C 16.035156 -12.488281 16.675781 -13.738281 17.03125 -15.0625 C 17.03125 -16.507812 17.003906 -17.878906 16.953125 -19.171875 C 16.910156 -20.359375 16.890625 -21.363281 16.890625 -22.1875 C 17.148438 -22.582031 17.570312 -22.84375 18.15625 -22.96875 C 18.738281 -23.09375 19.265625 -23.15625 19.734375 -23.15625 C 19.847656 -23.15625 19.953125 -23.15625 20.046875 -23.15625 Z M 16.578125 0.421875 C 16.578125 0.367188 16.578125 0.3125 16.578125 0.25 C 16.617188 -0.0507812 16.648438 -0.445312 16.671875 -0.9375 C 16.703125 -1.4375 16.671875 -1.820312 16.578125 -2.09375 C 16.484375 -2.375 16.269531 -2.410156 15.9375 -2.203125 C 15.59375 -1.953125 15.1875 -1.671875 14.71875 -1.359375 C 11.75 0.640625 7.859375 3.4375 3.046875 7.03125 C -1.765625 10.632812 -6.585938 14.703125 -11.421875 19.234375 C -12.378906 20.148438 -13.742188 21.519531 -15.515625 23.34375 C -17.296875 25.164062 -19.160156 27.25 -21.109375 29.59375 C -23.054688 31.9375 -24.765625 34.351562 -26.234375 36.84375 C -27.710938 39.332031 -28.632812 41.679688 -29 43.890625 C -29.363281 46.097656 -28.867188 47.992188 -27.515625 49.578125 C -25.710938 51.492188 -23.101562 52.320312 -19.6875 52.0625 C -16.28125 51.8125 -12.546875 50.53125 -8.484375 48.21875 C -4.421875 45.90625 -0.515625 42.578125 3.234375 38.234375 C 6.984375 33.890625 10.09375 28.554688 12.5625 22.234375 C 15.03125 15.910156 16.367188 8.640625 16.578125 0.421875 Z M 16.578125 0.421875 "/></g></g></g><g fill="#fffffe" fill-opacity="1"><g transform="translate(157.484511, 232.106015)"><g><path d="M 29.4375 -113.46875 C 30.0625 -113.46875 30.703125 -113.535156 31.359375 -113.671875 C 31.992188 -113.785156 32.59375 -113.867188 33.15625 -113.921875 C 35.882812 -114.222656 38.582031 -114.523438 41.25 -114.828125 L 47.859375 -115.609375 C 48.078125 -115.609375 48.289062 -115.628906 48.5 -115.671875 C 49.007812 -115.785156 49.5 -115.84375 49.96875 -115.84375 C 50.0625 -115.800781 50.191406 -115.742188 50.359375 -115.671875 C 50.796875 -115.785156 51.226562 -115.84375 51.65625 -115.84375 C 52.070312 -115.800781 52.457031 -115.519531 52.8125 -115 C 53.0625 -114.582031 52.914062 -114.191406 52.375 -113.828125 C 51.84375 -113.472656 51.003906 -113.1875 49.859375 -112.96875 L 42.46875 -111.921875 C 40.207031 -111.546875 37.976562 -111.207031 35.78125 -110.90625 C 34.125 -110.644531 32.5 -110.363281 30.90625 -110.0625 C 30.039062 -109.90625 29.488281 -109.671875 29.25 -109.359375 C 29.019531 -109.054688 28.90625 -108.5 28.90625 -107.6875 L 28.90625 -101.71875 C 29 -97.726562 28.976562 -93.75 28.84375 -89.78125 C 28.164062 -70.550781 27.394531 -51.335938 26.53125 -32.140625 C 26.0625 -22.046875 25.570312 -11.988281 25.0625 -1.96875 C 24.800781 2.84375 24.539062 7.691406 24.28125 12.578125 L 24.140625 16.15625 C 24.140625 17.019531 24.1875 17.65625 24.28125 18.0625 C 24.375 18.46875 24.585938 18.773438 24.921875 18.984375 C 25.265625 19.203125 25.820312 19.460938 26.59375 19.765625 C 31.007812 21.472656 35.460938 23.191406 39.953125 24.921875 C 40.910156 25.335938 41.832031 25.800781 42.71875 26.3125 C 43.0625 26.519531 43.328125 26.773438 43.515625 27.078125 C 43.703125 27.390625 43.691406 27.753906 43.484375 28.171875 C 43.066406 29.035156 42.34375 29.445312 41.3125 29.40625 C 41.101562 29.40625 40.925781 29.359375 40.78125 29.265625 L 40.71875 29.265625 C 40.394531 29.359375 40.03125 29.40625 39.625 29.40625 C 39.414062 29.40625 39.234375 29.359375 39.078125 29.265625 C 38.984375 29.191406 38.910156 29.128906 38.859375 29.078125 C 33.253906 26.722656 27.570312 24.695312 21.8125 23 C 16.050781 21.3125 10.144531 20.082031 4.09375 19.3125 C 3.675781 19.195312 3.257812 19.066406 2.84375 18.921875 C 2.582031 18.753906 2.441406 18.570312 2.421875 18.375 C 2.398438 18.175781 2.46875 17.972656 2.625 17.765625 C 3.488281 16.691406 4.644531 16.15625 6.09375 16.15625 C 7.125 16.082031 8.128906 16.046875 9.109375 16.046875 C 11.347656 16.003906 13.578125 16.21875 15.796875 16.6875 C 16.566406 16.894531 17.234375 17.046875 17.796875 17.140625 L 18.109375 17 C 18.578125 16.625 18.789062 15.382812 18.75 13.28125 C 18.789062 13.144531 18.8125 12.992188 18.8125 12.828125 C 18.90625 10.160156 19.054688 7.460938 19.265625 4.734375 C 19.484375 2.066406 19.640625 -0.582031 19.734375 -3.21875 C 20.109375 -14.570312 20.421875 -25.925781 20.671875 -37.28125 C 20.816406 -41.75 20.945312 -46.203125 21.0625 -50.640625 L 20.890625 -50.640625 L 21.34375 -61.25 C 21.757812 -69.78125 22.117188 -78.320312 22.421875 -86.875 C 22.546875 -91.332031 22.628906 -95.769531 22.671875 -100.1875 L 22.671875 -104.734375 C 22.671875 -105.671875 22.613281 -106.570312 22.5 -107.4375 C 22.445312 -107.738281 22.316406 -107.992188 22.109375 -108.203125 C 22.015625 -108.253906 21.945312 -108.300781 21.90625 -108.34375 L 19.734375 -108.0625 C 19.335938 -107.945312 18.925781 -107.867188 18.5 -107.828125 C 17.257812 -107.660156 16.019531 -107.484375 14.78125 -107.296875 C 11.914062 -106.828125 9.046875 -106.382812 6.171875 -105.96875 C 5.304688 -105.914062 4.554688 -105.890625 3.921875 -105.890625 C 1.304688 -105.734375 0.128906 -106.226562 0.390625 -107.375 C 0.640625 -108.09375 1.035156 -108.5625 1.578125 -108.78125 C 2.117188 -109.007812 2.726562 -109.15625 3.40625 -109.21875 C 3.613281 -109.269531 3.8125 -109.296875 4 -109.296875 C 5.445312 -109.554688 6.914062 -109.8125 8.40625 -110.0625 C 11.789062 -110.625 15.179688 -111.160156 18.578125 -111.671875 C 19.460938 -111.765625 20.3125 -111.957031 21.125 -112.25 C 21.945312 -112.539062 22.695312 -113.039062 23.375 -113.75 C 23.632812 -114.070312 23.957031 -114.28125 24.34375 -114.375 C 24.726562 -114.46875 25.070312 -114.445312 25.375 -114.3125 C 25.414062 -114.257812 25.484375 -114.234375 25.578125 -114.234375 C 25.691406 -114.285156 25.859375 -114.332031 26.078125 -114.375 C 26.421875 -114.46875 26.742188 -114.445312 27.046875 -114.3125 C 27.867188 -113.84375 28.664062 -113.5625 29.4375 -113.46875 Z M 29.4375 -113.46875 "/></g></g></g><g fill="#fffffe" fill-opacity="1"><g transform="translate(196.409606, 232.106015)"><g><path d="M 51.65625 -21.234375 C 52.675781 -21.703125 53.269531 -21.785156 53.4375 -21.484375 C 53.625 -20.867188 53.070312 -19.773438 51.78125 -18.203125 C 50.5 -16.628906 48.765625 -15.023438 46.578125 -13.390625 C 41.265625 -9.691406 36.796875 -7.476562 33.171875 -6.75 C 29.554688 -6.03125 26.601562 -6.257812 24.3125 -7.4375 C 22.03125 -8.625 20.328125 -10.242188 19.203125 -12.296875 C 17.867188 -14.609375 17.039062 -16.898438 16.71875 -19.171875 C 16.269531 -21.640625 15.660156 -23.035156 14.890625 -23.359375 C 14.117188 -23.691406 13.296875 -23.34375 12.421875 -22.3125 C 11.546875 -21.289062 10.691406 -19.941406 9.859375 -18.265625 C 9.035156 -16.597656 8.351562 -14.96875 7.8125 -13.375 C 7.28125 -11.789062 6.988281 -10.59375 6.9375 -9.78125 C 6.769531 -9.3125 6.617188 -8.863281 6.484375 -8.4375 C 6.273438 -7.789062 6.039062 -7.148438 5.78125 -6.515625 C 5.101562 -4.765625 3.925781 -4.125 2.25 -4.59375 C 1.3125 -4.75 0.769531 -5.320312 0.625 -6.3125 C 0.5625 -6.957031 0.53125 -7.644531 0.53125 -8.375 C 0.53125 -8.9375 0.503906 -9.53125 0.453125 -10.15625 C 0.359375 -14.363281 0.253906 -18.601562 0.140625 -22.875 C 0.140625 -23.394531 0.382812 -23.753906 0.875 -23.953125 C 1.363281 -24.148438 1.929688 -24.234375 2.578125 -24.203125 C 3.222656 -24.179688 3.789062 -24.082031 4.28125 -23.90625 C 4.769531 -23.738281 5.035156 -23.488281 5.078125 -23.15625 C 5.191406 -22.457031 5.25 -21.851562 5.25 -21.34375 C 5.25 -20.613281 5.296875 -20.09375 5.390625 -19.78125 C 5.484375 -19.46875 5.695312 -19.476562 6.03125 -19.8125 C 6.375 -20.15625 6.957031 -20.863281 7.78125 -21.9375 C 9.0625 -23.988281 10.6875 -25.738281 12.65625 -27.1875 C 13.519531 -27.84375 14.539062 -28.316406 15.71875 -28.609375 C 16.894531 -28.898438 18.035156 -28.941406 19.140625 -28.734375 C 20.304688 -28.429688 21.21875 -27.765625 21.875 -26.734375 C 22.539062 -25.703125 23.046875 -24.523438 23.390625 -23.203125 C 23.734375 -21.890625 23.984375 -20.671875 24.140625 -19.546875 C 24.191406 -19.242188 24.238281 -18.988281 24.28125 -18.78125 C 24.539062 -17.289062 24.882812 -15.929688 25.3125 -14.703125 C 25.75 -13.472656 26.457031 -12.507812 27.4375 -11.8125 C 28.414062 -11.113281 29.851562 -10.84375 31.75 -11 C 35.863281 -11.300781 39.128906 -12.160156 41.546875 -13.578125 C 43.960938 -14.992188 46 -16.492188 47.65625 -18.078125 C 47.914062 -18.285156 48.140625 -18.5 48.328125 -18.71875 C 48.703125 -18.96875 49.015625 -19.222656 49.265625 -19.484375 C 49.878906 -20.140625 50.675781 -20.722656 51.65625 -21.234375 Z M 51.65625 -21.234375 "/></g></g></g><g fill="#fffffe" fill-opacity="1"><g transform="translate(245.179837, 232.106015)"><g><path d="M 47.65625 -21.9375 C 48.007812 -21.84375 48.003906 -21.34375 47.640625 -20.4375 C 47.273438 -19.539062 46.535156 -18.394531 45.421875 -17 C 44.128906 -15.519531 41.992188 -13.851562 39.015625 -12 C 36.035156 -10.144531 32.585938 -8.445312 28.671875 -6.90625 C 24.765625 -5.363281 20.832031 -4.269531 16.875 -3.625 C 12.914062 -2.976562 9.300781 -3.125 6.03125 -4.0625 C 2.570312 -5.132812 0.582031 -7.390625 0.0625 -10.828125 C -0.1875 -12.785156 -0.0546875 -14.710938 0.453125 -16.609375 C 1.085938 -18.566406 2.082031 -20.289062 3.4375 -21.78125 C 4.789062 -23.28125 6.472656 -24.414062 8.484375 -25.1875 C 10.367188 -25.84375 12.328125 -26.09375 14.359375 -25.9375 C 16.398438 -25.789062 18.0625 -25.179688 19.34375 -24.109375 C 19.550781 -23.941406 19.65625 -23.707031 19.65625 -23.40625 C 19.65625 -23.101562 19.609375 -22.800781 19.515625 -22.5 C 19.265625 -21.613281 18.835938 -21.195312 18.234375 -21.25 C 17.640625 -21.3125 16.957031 -21.539062 16.1875 -21.9375 C 15.625 -22.238281 15.007812 -22.503906 14.34375 -22.734375 C 13.675781 -22.972656 12.984375 -23.046875 12.265625 -22.953125 C 10.253906 -22.648438 8.582031 -21.597656 7.25 -19.796875 C 6.175781 -18.304688 5.445312 -16.660156 5.0625 -14.859375 C 4.675781 -13.054688 4.832031 -11.429688 5.53125 -9.984375 C 6.519531 -8.140625 8.242188 -7.035156 10.703125 -6.671875 C 13.171875 -6.304688 16.007812 -6.488281 19.21875 -7.21875 C 22.425781 -7.945312 25.675781 -8.988281 28.96875 -10.34375 C 32.269531 -11.695312 35.289062 -13.128906 38.03125 -14.640625 C 40.78125 -16.160156 42.898438 -17.566406 44.390625 -18.859375 C 45.929688 -20.179688 46.832031 -21.054688 47.09375 -21.484375 C 47.257812 -21.640625 47.375 -21.753906 47.4375 -21.828125 C 47.507812 -21.898438 47.582031 -21.9375 47.65625 -21.9375 Z M 47.65625 -21.9375 "/></g></g></g></svg>