<svg xmlns="http://www.w3.org/2000/svg" xmlns:xlink="http://www.w3.org/1999/xlink" width="500" zoomAndPan="magnify" viewBox="0 0 375 374.999991" height="500" preserveAspectRatio="xMidYMid meet" version="1.0"><defs><g/><clipPath id="6a85f341f4"><path d="M 161.339844 114.277344 L 282.855469 114.277344 L 282.855469 260.722656 L 161.339844 260.722656 Z M 161.339844 114.277344 " clip-rule="nonzero"/></clipPath></defs><g clip-path="url(#6a85f341f4)"><path fill="#000000" d="M 161.339844 114.277344 L 282.855469 114.277344 L 282.855469 260.722656 L 161.339844 260.722656 Z M 161.339844 114.277344 " fill-opacity="1" fill-rule="nonzero"/></g><g fill="#000000" fill-opacity="1"><g transform="translate(25.918109, 231.392393)"><g><path d="M 49.953125 -72.203125 C 50.867188 -64.847656 50.710938 -57.984375 49.484375 -51.609375 C 48.253906 -45.234375 46.054688 -39.207031 42.890625 -33.53125 C 39.734375 -27.851562 35.738281 -22.335938 30.90625 -16.984375 C 30.457031 -16.546875 30.234375 -16.15625 30.234375 -15.8125 C 30.234375 -15.476562 30.457031 -15.054688 30.90625 -14.546875 C 31.882812 -13.210938 32.9375 -11.9375 34.0625 -10.71875 C 35.195312 -9.507812 36.515625 -8.492188 38.015625 -7.671875 C 39.128906 -6.429688 39.300781 -5.609375 38.53125 -5.203125 C 37.757812 -4.796875 36.332031 -5.039062 34.25 -5.9375 C 32.175781 -6.832031 29.773438 -8.71875 27.046875 -11.59375 C 26.535156 -12.226562 25.953125 -12.3125 25.296875 -11.84375 C 24.566406 -11.332031 23.84375 -10.84375 23.125 -10.375 C 22.46875 -9.90625 21.828125 -9.445312 21.203125 -9 C 19.046875 -7.507812 16.734375 -6.25 14.265625 -5.21875 C 11.691406 -4.070312 8.992188 -3.628906 6.171875 -3.890625 C 1.796875 -4.398438 -0.457031 -6.84375 -0.59375 -11.21875 C -0.707031 -14.289062 -0.0820312 -17.046875 1.28125 -19.484375 C 2.644531 -21.929688 4.546875 -23.734375 6.984375 -24.890625 C 9.429688 -26.046875 12.242188 -26.273438 15.421875 -25.578125 C 15.835938 -25.503906 16.328125 -25.398438 16.890625 -25.265625 C 17.234375 -25.210938 17.664062 -25.101562 18.1875 -24.9375 C 17.832031 -25.664062 17.523438 -26.3125 17.265625 -26.875 C 16.847656 -27.851562 16.460938 -28.703125 16.109375 -29.421875 C 14.015625 -33.796875 12.296875 -38.804688 10.953125 -44.453125 C 9.609375 -50.109375 8.9375 -55.875 8.9375 -61.75 C 8.9375 -67.625 9.925781 -73.101562 11.90625 -78.1875 C 13.894531 -83.28125 17.144531 -87.476562 21.65625 -90.78125 C 24.476562 -92.71875 27.429688 -93.765625 30.515625 -93.921875 C 33.597656 -94.085938 36.488281 -93.421875 39.1875 -91.921875 C 41.882812 -90.429688 44.109375 -88.191406 45.859375 -85.203125 C 48.078125 -81.160156 49.441406 -76.828125 49.953125 -72.203125 Z M 20.671875 -14.015625 C 21.328125 -14.523438 21.394531 -15.128906 20.875 -15.828125 C 20.570312 -16.160156 20.25 -16.523438 19.90625 -16.921875 C 19.082031 -17.953125 18.140625 -19.007812 17.078125 -20.09375 C 16.015625 -21.175781 14.894531 -22.007812 13.71875 -22.59375 C 12.539062 -23.175781 11.363281 -23.210938 10.1875 -22.703125 C 8.582031 -21.929688 7.253906 -20.570312 6.203125 -18.625 C 5.148438 -16.675781 4.523438 -14.671875 4.328125 -12.609375 C 4.128906 -10.554688 4.515625 -8.992188 5.484375 -7.921875 C 6.453125 -6.847656 8.148438 -6.765625 10.578125 -7.671875 C 14.222656 -9.265625 17.585938 -11.378906 20.671875 -14.015625 Z M 28.453125 -21.71875 C 33.421875 -27.46875 37.113281 -33.15625 39.53125 -38.78125 C 41.945312 -44.40625 43.625 -50.992188 44.5625 -58.546875 C 44.769531 -60.390625 44.875 -62.816406 44.875 -65.828125 C 44.875 -68.835938 44.597656 -71.957031 44.046875 -75.1875 C 43.503906 -78.425781 42.566406 -81.382812 41.234375 -84.0625 C 39.898438 -86.738281 38.035156 -88.664062 35.640625 -89.84375 C 33.253906 -91.019531 30.210938 -91.015625 26.515625 -89.828125 C 22.359375 -87.472656 19.304688 -84.289062 17.359375 -80.28125 C 15.410156 -76.269531 14.289062 -71.820312 14 -66.9375 C 13.707031 -62.0625 14.023438 -57.078125 14.953125 -51.984375 C 15.890625 -46.898438 17.175781 -42.070312 18.8125 -37.5 C 20.445312 -32.9375 22.195312 -28.960938 24.0625 -25.578125 C 24.320312 -25.148438 24.546875 -24.726562 24.734375 -24.3125 C 25.316406 -22.976562 26.144531 -21.753906 27.21875 -20.640625 C 27.363281 -20.734375 27.515625 -20.835938 27.671875 -20.953125 C 27.972656 -21.140625 28.234375 -21.394531 28.453125 -21.71875 Z M 28.453125 -21.71875 "/></g></g></g><g fill="#000000" fill-opacity="1"><g transform="translate(68.835352, 231.392393)"><g><path d="M 31.1875 -16.78125 C 31.644531 -17.039062 32.109375 -17.234375 32.578125 -17.359375 C 33.046875 -17.484375 33.34375 -17.46875 33.46875 -17.3125 C 33.601562 -17.164062 33.410156 -16.78125 32.890625 -16.15625 C 31.234375 -14.3125 29.289062 -12.628906 27.0625 -11.109375 C 24.832031 -9.585938 22.5625 -8.289062 20.25 -7.21875 C 18.40625 -6.394531 16.453125 -5.738281 14.390625 -5.25 C 12.335938 -4.757812 10.304688 -4.65625 8.296875 -4.9375 C 6.296875 -5.21875 4.476562 -6.109375 2.84375 -7.609375 C 0.875 -9.566406 -0.191406 -12.054688 -0.359375 -15.078125 C -0.535156 -18.109375 0.164062 -20.648438 1.75 -22.703125 C 3.851562 -25.054688 6.507812 -26.570312 9.71875 -27.25 C 12.9375 -27.925781 15.828125 -27.414062 18.390625 -25.71875 C 19.628906 -24.851562 20.128906 -23.84375 19.890625 -22.6875 C 19.660156 -21.53125 19.039062 -20.445312 18.03125 -19.4375 C 17.03125 -18.4375 15.910156 -17.679688 14.671875 -17.171875 C 12.828125 -16.441406 11.175781 -16.289062 9.71875 -16.71875 C 8.257812 -17.15625 7.125 -17.738281 6.3125 -18.46875 C 5.726562 -18.25 5.363281 -17.429688 5.21875 -16.015625 C 4.84375 -13.328125 5.6875 -11.140625 7.75 -9.453125 C 9.445312 -8.171875 11.59375 -7.820312 14.1875 -8.40625 C 16.78125 -8.988281 19.4375 -10.015625 22.15625 -11.484375 C 24.875 -12.960938 27.296875 -14.367188 29.421875 -15.703125 C 30.078125 -16.046875 30.664062 -16.40625 31.1875 -16.78125 Z M 14.15625 -23.546875 C 13.851562 -23.960938 13.347656 -24.128906 12.640625 -24.046875 C 11.941406 -23.960938 11.222656 -23.742188 10.484375 -23.390625 C 9.753906 -23.046875 9.113281 -22.679688 8.5625 -22.296875 C 8.019531 -21.910156 7.78125 -21.632812 7.84375 -21.46875 C 7.84375 -21.375 7.90625 -21.210938 8.03125 -20.984375 C 8.164062 -20.753906 8.359375 -20.507812 8.609375 -20.25 C 8.867188 -19.988281 9.210938 -19.804688 9.640625 -19.703125 C 10.078125 -19.597656 10.632812 -19.628906 11.3125 -19.796875 C 12.382812 -20.097656 13.132812 -20.492188 13.5625 -20.984375 C 14 -21.472656 14.25 -21.957031 14.3125 -22.4375 C 14.375 -22.914062 14.320312 -23.285156 14.15625 -23.546875 Z M 14.15625 -23.546875 "/></g></g></g><g fill="#000000" fill-opacity="1"><g transform="translate(98.509563, 231.392393)"><g><path d="M 10.359375 -12.75 C 11.160156 -11.726562 11.675781 -10.664062 11.90625 -9.5625 C 12.144531 -8.46875 12.234375 -7.273438 12.171875 -5.984375 C 12.117188 -4.703125 11.707031 -3.554688 10.9375 -2.546875 C 10.164062 -1.546875 8.878906 -0.941406 7.078125 -0.734375 C 5.273438 -0.597656 3.664062 -0.875 2.25 -1.5625 C 0.84375 -2.25 -0.0390625 -3.242188 -0.40625 -4.546875 C -0.769531 -5.859375 -0.332031 -7.390625 0.90625 -9.140625 C 1.726562 -10.117188 2.710938 -10.972656 3.859375 -11.703125 C 4.253906 -11.960938 4.660156 -12.242188 5.078125 -12.546875 C 3.703125 -14.035156 2.394531 -15.5625 1.15625 -17.125 C -0.0820312 -18.695312 -0.875 -20.097656 -1.21875 -21.328125 C -1.59375 -22.753906 -1.351562 -24.097656 -0.5 -25.359375 C 0.34375 -26.617188 1.816406 -27.359375 3.921875 -27.578125 C 4.953125 -27.671875 5.914062 -27.613281 6.8125 -27.40625 C 7.707031 -27.207031 8.539062 -26.769531 9.3125 -26.09375 C 9.476562 -25.9375 9.597656 -25.757812 9.671875 -25.5625 C 9.742188 -25.363281 9.707031 -25.109375 9.5625 -24.796875 C 9.300781 -24.335938 8.914062 -24.109375 8.40625 -24.109375 C 8.03125 -24.109375 7.671875 -24.15625 7.328125 -24.25 C 6.953125 -24.40625 6.613281 -24.554688 6.3125 -24.703125 C 6.09375 -24.816406 5.890625 -24.921875 5.703125 -25.015625 C 5.023438 -25.273438 4.503906 -25.238281 4.140625 -24.90625 C 3.785156 -24.582031 3.609375 -24.082031 3.609375 -23.40625 C 3.648438 -22.207031 4.140625 -20.929688 5.078125 -19.578125 C 6.015625 -18.222656 6.9375 -16.972656 7.84375 -15.828125 C 8.21875 -15.429688 8.535156 -15.046875 8.796875 -14.671875 C 9.046875 -14.421875 9.566406 -13.78125 10.359375 -12.75 Z M 5.609375 -3.359375 C 6.285156 -3.410156 6.726562 -3.785156 6.9375 -4.484375 C 7.144531 -5.179688 7.21875 -5.953125 7.15625 -6.796875 C 7.101562 -7.640625 7.050781 -8.269531 7 -8.6875 C 6.90625 -8.945312 6.742188 -9.109375 6.515625 -9.171875 C 6.285156 -9.242188 6.0625 -9.234375 5.84375 -9.140625 C 5.070312 -8.535156 4.503906 -7.765625 4.140625 -6.828125 C 3.785156 -5.898438 3.816406 -5.082031 4.234375 -4.375 C 4.378906 -4.125 4.566406 -3.90625 4.796875 -3.71875 C 5.035156 -3.53125 5.304688 -3.410156 5.609375 -3.359375 Z M 5.609375 -3.359375 "/></g></g></g><g fill="#000000" fill-opacity="1"><g transform="translate(113.854664, 231.392393)"><g><path d="M 10.359375 -12.75 C 11.160156 -11.726562 11.675781 -10.664062 11.90625 -9.5625 C 12.144531 -8.46875 12.234375 -7.273438 12.171875 -5.984375 C 12.117188 -4.703125 11.707031 -3.554688 10.9375 -2.546875 C 10.164062 -1.546875 8.878906 -0.941406 7.078125 -0.734375 C 5.273438 -0.597656 3.664062 -0.875 2.25 -1.5625 C 0.84375 -2.25 -0.0390625 -3.242188 -0.40625 -4.546875 C -0.769531 -5.859375 -0.332031 -7.390625 0.90625 -9.140625 C 1.726562 -10.117188 2.710938 -10.972656 3.859375 -11.703125 C 4.253906 -11.960938 4.660156 -12.242188 5.078125 -12.546875 C 3.703125 -14.035156 2.394531 -15.5625 1.15625 -17.125 C -0.0820312 -18.695312 -0.875 -20.097656 -1.21875 -21.328125 C -1.59375 -22.753906 -1.351562 -24.097656 -0.5 -25.359375 C 0.34375 -26.617188 1.816406 -27.359375 3.921875 -27.578125 C 4.953125 -27.671875 5.914062 -27.613281 6.8125 -27.40625 C 7.707031 -27.207031 8.539062 -26.769531 9.3125 -26.09375 C 9.476562 -25.9375 9.597656 -25.757812 9.671875 -25.5625 C 9.742188 -25.363281 9.707031 -25.109375 9.5625 -24.796875 C 9.300781 -24.335938 8.914062 -24.109375 8.40625 -24.109375 C 8.03125 -24.109375 7.671875 -24.15625 7.328125 -24.25 C 6.953125 -24.40625 6.613281 -24.554688 6.3125 -24.703125 C 6.09375 -24.816406 5.890625 -24.921875 5.703125 -25.015625 C 5.023438 -25.273438 4.503906 -25.238281 4.140625 -24.90625 C 3.785156 -24.582031 3.609375 -24.082031 3.609375 -23.40625 C 3.648438 -22.207031 4.140625 -20.929688 5.078125 -19.578125 C 6.015625 -18.222656 6.9375 -16.972656 7.84375 -15.828125 C 8.21875 -15.429688 8.535156 -15.046875 8.796875 -14.671875 C 9.046875 -14.421875 9.566406 -13.78125 10.359375 -12.75 Z M 5.609375 -3.359375 C 6.285156 -3.410156 6.726562 -3.785156 6.9375 -4.484375 C 7.144531 -5.179688 7.21875 -5.953125 7.15625 -6.796875 C 7.101562 -7.640625 7.050781 -8.269531 7 -8.6875 C 6.90625 -8.945312 6.742188 -9.109375 6.515625 -9.171875 C 6.285156 -9.242188 6.0625 -9.234375 5.84375 -9.140625 C 5.070312 -8.535156 4.503906 -7.765625 4.140625 -6.828125 C 3.785156 -5.898438 3.816406 -5.082031 4.234375 -4.375 C 4.378906 -4.125 4.566406 -3.90625 4.796875 -3.71875 C 5.035156 -3.53125 5.304688 -3.410156 5.609375 -3.359375 Z M 5.609375 -3.359375 "/></g></g></g><g fill="#000000" fill-opacity="1"><g transform="translate(129.199765, 231.392393)"><g><path d="M 20.046875 -23.15625 C 21.117188 -23.269531 21.863281 -23.070312 22.28125 -22.5625 C 22.632812 -22 22.785156 -20.046875 22.734375 -16.703125 C 22.691406 -13.367188 22.53125 -9.488281 22.25 -5.0625 C 21.96875 -0.632812 21.644531 3.460938 21.28125 7.234375 C 20.914062 11.003906 20.628906 13.640625 20.421875 15.140625 C 18.929688 23.710938 16.257812 30.875 12.40625 36.625 C 8.550781 42.382812 4.148438 46.832031 -0.796875 49.96875 C -5.753906 53.113281 -10.640625 55.019531 -15.453125 55.6875 C -20.265625 56.351562 -24.347656 55.882812 -27.703125 54.28125 C -31.066406 52.6875 -33.070312 50.023438 -33.71875 46.296875 C -34.363281 42.566406 -33.015625 37.875 -29.671875 32.21875 C -26.335938 26.570312 -20.382812 20.0625 -11.8125 12.6875 C -8.394531 9.851562 -3.671875 6.425781 2.359375 2.40625 C 8.398438 -1.601562 13.1875 -4.320312 16.71875 -5.75 C 16.78125 -6.425781 16.835938 -7.148438 16.890625 -7.921875 C 15.441406 -6.265625 13.957031 -5.304688 12.4375 -5.046875 C 10.914062 -4.785156 9.515625 -4.757812 8.234375 -4.96875 C 8.140625 -4.96875 8.066406 -4.96875 8.015625 -4.96875 C 5.703125 -5.28125 3.890625 -6.351562 2.578125 -8.1875 C 1.273438 -10.019531 0.441406 -12.101562 0.078125 -14.4375 C -0.273438 -16.769531 -0.175781 -18.859375 0.375 -20.703125 C 0.9375 -22.546875 1.988281 -23.65625 3.53125 -24.03125 C 4.164062 -24.125 4.867188 -24.179688 5.640625 -24.203125 C 6.410156 -24.234375 7.050781 -24.144531 7.5625 -23.9375 C 8.082031 -23.738281 8.28125 -23.328125 8.15625 -22.703125 C 7.644531 -20.859375 7.351562 -18.820312 7.28125 -16.59375 C 7.21875 -14.363281 7.410156 -12.410156 7.859375 -10.734375 C 8.316406 -9.066406 9.132812 -8.164062 10.3125 -8.03125 C 11.5 -7.90625 13.09375 -9 15.09375 -11.3125 C 16.03125 -12.476562 16.675781 -13.726562 17.03125 -15.0625 C 17.03125 -16.507812 17.003906 -17.875 16.953125 -19.15625 C 16.910156 -20.351562 16.890625 -21.359375 16.890625 -22.171875 C 17.140625 -22.566406 17.554688 -22.828125 18.140625 -22.953125 C 18.734375 -23.085938 19.257812 -23.15625 19.71875 -23.15625 C 19.84375 -23.15625 19.953125 -23.15625 20.046875 -23.15625 Z M 16.578125 0.421875 C 16.578125 0.367188 16.578125 0.3125 16.578125 0.25 C 16.617188 -0.0507812 16.648438 -0.445312 16.671875 -0.9375 C 16.703125 -1.4375 16.671875 -1.820312 16.578125 -2.09375 C 16.484375 -2.375 16.269531 -2.410156 15.9375 -2.203125 C 15.59375 -1.953125 15.1875 -1.671875 14.71875 -1.359375 C 11.75 0.640625 7.859375 3.4375 3.046875 7.03125 C -1.765625 10.632812 -6.585938 14.703125 -11.421875 19.234375 C -12.378906 20.140625 -13.742188 21.503906 -15.515625 23.328125 C -17.296875 25.148438 -19.160156 27.234375 -21.109375 29.578125 C -23.054688 31.929688 -24.765625 34.347656 -26.234375 36.828125 C -27.710938 39.316406 -28.628906 41.664062 -28.984375 43.875 C -29.347656 46.082031 -28.851562 47.984375 -27.5 49.578125 C -25.695312 51.492188 -23.09375 52.320312 -19.6875 52.0625 C -16.28125 51.800781 -12.539062 50.515625 -8.46875 48.203125 C -4.40625 45.890625 -0.503906 42.5625 3.234375 38.21875 C 6.984375 33.875 10.085938 28.539062 12.546875 22.21875 C 15.015625 15.90625 16.359375 8.640625 16.578125 0.421875 Z M 16.578125 0.421875 "/></g></g></g><g fill="#e60c95" fill-opacity="1"><g transform="translate(157.488091, 231.392393)"><g><path d="M 29.421875 -113.4375 C 30.054688 -113.4375 30.703125 -113.507812 31.359375 -113.65625 C 31.984375 -113.769531 32.578125 -113.847656 33.140625 -113.890625 C 35.867188 -114.203125 38.566406 -114.507812 41.234375 -114.8125 L 47.859375 -115.578125 C 48.066406 -115.578125 48.273438 -115.597656 48.484375 -115.640625 C 49.003906 -115.765625 49.492188 -115.828125 49.953125 -115.828125 C 50.046875 -115.773438 50.175781 -115.710938 50.34375 -115.640625 C 50.789062 -115.765625 51.222656 -115.828125 51.640625 -115.828125 C 52.054688 -115.773438 52.441406 -115.492188 52.796875 -114.984375 C 53.054688 -114.566406 52.914062 -114.175781 52.375 -113.8125 C 51.84375 -113.445312 51.003906 -113.160156 49.859375 -112.953125 L 42.46875 -111.90625 C 40.195312 -111.53125 37.960938 -111.191406 35.765625 -110.890625 C 34.109375 -110.628906 32.488281 -110.347656 30.90625 -110.046875 C 30.039062 -109.878906 29.488281 -109.644531 29.25 -109.34375 C 29.019531 -109.039062 28.90625 -108.476562 28.90625 -107.65625 L 28.90625 -101.703125 C 29 -97.710938 28.972656 -93.726562 28.828125 -89.75 C 28.148438 -70.53125 27.378906 -51.320312 26.515625 -32.125 C 26.046875 -22.03125 25.554688 -11.976562 25.046875 -1.96875 C 24.796875 2.84375 24.539062 7.691406 24.28125 12.578125 L 24.140625 16.15625 C 24.140625 17.019531 24.1875 17.65625 24.28125 18.0625 C 24.375 18.46875 24.585938 18.773438 24.921875 18.984375 C 25.265625 19.191406 25.820312 19.453125 26.59375 19.765625 C 31.007812 21.460938 35.457031 23.175781 39.9375 24.90625 C 40.894531 25.332031 41.816406 25.800781 42.703125 26.3125 C 43.054688 26.519531 43.328125 26.773438 43.515625 27.078125 C 43.703125 27.378906 43.691406 27.742188 43.484375 28.171875 C 43.054688 29.035156 42.332031 29.441406 41.3125 29.390625 C 41.09375 29.390625 40.914062 29.34375 40.78125 29.25 L 40.703125 29.25 C 40.378906 29.34375 40.019531 29.390625 39.625 29.390625 C 39.414062 29.390625 39.226562 29.34375 39.0625 29.25 C 38.96875 29.1875 38.898438 29.128906 38.859375 29.078125 C 33.242188 26.722656 27.554688 24.695312 21.796875 23 C 16.046875 21.300781 10.144531 20.066406 4.09375 19.296875 C 3.675781 19.179688 3.257812 19.054688 2.84375 18.921875 C 2.582031 18.753906 2.4375 18.570312 2.40625 18.375 C 2.382812 18.175781 2.457031 17.972656 2.625 17.765625 C 3.488281 16.691406 4.644531 16.15625 6.09375 16.15625 C 7.125 16.082031 8.128906 16.046875 9.109375 16.046875 C 11.347656 15.992188 13.578125 16.203125 15.796875 16.671875 C 16.566406 16.878906 17.234375 17.03125 17.796875 17.125 L 18.109375 16.984375 C 18.578125 16.617188 18.789062 15.382812 18.75 13.28125 C 18.789062 13.132812 18.8125 12.984375 18.8125 12.828125 C 18.90625 10.160156 19.054688 7.460938 19.265625 4.734375 C 19.472656 2.066406 19.625 -0.582031 19.71875 -3.21875 C 20.09375 -14.570312 20.410156 -25.925781 20.671875 -37.28125 C 20.804688 -41.738281 20.9375 -46.1875 21.0625 -50.625 L 20.875 -50.625 L 21.328125 -61.234375 C 21.753906 -69.765625 22.117188 -78.300781 22.421875 -86.84375 C 22.535156 -91.3125 22.617188 -95.75 22.671875 -100.15625 L 22.671875 -104.71875 C 22.671875 -105.65625 22.609375 -106.554688 22.484375 -107.421875 C 22.441406 -107.722656 22.316406 -107.976562 22.109375 -108.1875 C 22.015625 -108.226562 21.941406 -108.273438 21.890625 -108.328125 L 19.71875 -108.046875 C 19.320312 -107.929688 18.914062 -107.847656 18.5 -107.796875 C 17.257812 -107.640625 16.019531 -107.46875 14.78125 -107.28125 C 11.90625 -106.8125 9.035156 -106.363281 6.171875 -105.9375 C 5.304688 -105.894531 4.554688 -105.875 3.921875 -105.875 C 1.304688 -105.707031 0.128906 -106.195312 0.390625 -107.34375 C 0.640625 -108.070312 1.03125 -108.546875 1.5625 -108.765625 C 2.101562 -108.984375 2.710938 -109.128906 3.390625 -109.203125 C 3.609375 -109.242188 3.8125 -109.265625 4 -109.265625 C 5.445312 -109.523438 6.914062 -109.785156 8.40625 -110.046875 C 11.789062 -110.609375 15.175781 -111.144531 18.5625 -111.65625 C 19.457031 -111.75 20.3125 -111.941406 21.125 -112.234375 C 21.945312 -112.523438 22.695312 -113.019531 23.375 -113.71875 C 23.625 -114.050781 23.941406 -114.257812 24.328125 -114.34375 C 24.710938 -114.4375 25.054688 -114.414062 25.359375 -114.28125 C 25.410156 -114.238281 25.484375 -114.21875 25.578125 -114.21875 C 25.691406 -114.257812 25.851562 -114.304688 26.0625 -114.359375 C 26.414062 -114.441406 26.742188 -114.414062 27.046875 -114.28125 C 27.859375 -113.8125 28.648438 -113.53125 29.421875 -113.4375 Z M 29.421875 -113.4375 "/></g></g></g><g fill="#e60c95" fill-opacity="1"><g transform="translate(196.411404, 231.392393)"><g><path d="M 51.640625 -21.234375 C 52.671875 -21.703125 53.265625 -21.78125 53.421875 -21.46875 C 53.609375 -20.863281 53.0625 -19.769531 51.78125 -18.1875 C 50.5 -16.613281 48.757812 -15.015625 46.5625 -13.390625 C 41.257812 -9.691406 36.796875 -7.476562 33.171875 -6.75 C 29.554688 -6.03125 26.601562 -6.257812 24.3125 -7.4375 C 22.019531 -8.625 20.316406 -10.242188 19.203125 -12.296875 C 17.867188 -14.609375 17.039062 -16.894531 16.71875 -19.15625 C 16.269531 -21.632812 15.660156 -23.035156 14.890625 -23.359375 C 14.117188 -23.691406 13.296875 -23.34375 12.421875 -22.3125 C 11.546875 -21.289062 10.691406 -19.941406 9.859375 -18.265625 C 9.035156 -16.597656 8.351562 -14.96875 7.8125 -13.375 C 7.269531 -11.789062 6.976562 -10.59375 6.9375 -9.78125 C 6.769531 -9.3125 6.617188 -8.863281 6.484375 -8.4375 C 6.273438 -7.789062 6.039062 -7.148438 5.78125 -6.515625 C 5.101562 -4.765625 3.925781 -4.125 2.25 -4.59375 C 1.3125 -4.75 0.769531 -5.320312 0.625 -6.3125 C 0.5625 -6.957031 0.53125 -7.644531 0.53125 -8.375 C 0.53125 -8.9375 0.503906 -9.53125 0.453125 -10.15625 C 0.359375 -14.363281 0.253906 -18.601562 0.140625 -22.875 C 0.140625 -23.382812 0.382812 -23.738281 0.875 -23.9375 C 1.363281 -24.144531 1.925781 -24.234375 2.5625 -24.203125 C 3.207031 -24.179688 3.773438 -24.082031 4.265625 -23.90625 C 4.765625 -23.726562 5.035156 -23.476562 5.078125 -23.15625 C 5.191406 -22.457031 5.25 -21.847656 5.25 -21.328125 C 5.25 -20.609375 5.296875 -20.085938 5.390625 -19.765625 C 5.484375 -19.453125 5.695312 -19.460938 6.03125 -19.796875 C 6.375 -20.140625 6.957031 -20.851562 7.78125 -21.9375 C 9.0625 -23.988281 10.679688 -25.738281 12.640625 -27.1875 C 13.503906 -27.84375 14.523438 -28.316406 15.703125 -28.609375 C 16.890625 -28.898438 18.03125 -28.941406 19.125 -28.734375 C 20.289062 -28.421875 21.207031 -27.75 21.875 -26.71875 C 22.539062 -25.695312 23.039062 -24.523438 23.375 -23.203125 C 23.71875 -21.890625 23.972656 -20.671875 24.140625 -19.546875 C 24.179688 -19.242188 24.226562 -18.988281 24.28125 -18.78125 C 24.539062 -17.28125 24.882812 -15.914062 25.3125 -14.6875 C 25.738281 -13.46875 26.441406 -12.503906 27.421875 -11.796875 C 28.410156 -11.097656 29.847656 -10.832031 31.734375 -11 C 35.847656 -11.300781 39.113281 -12.160156 41.53125 -13.578125 C 43.945312 -14.992188 45.984375 -16.492188 47.640625 -18.078125 C 47.898438 -18.285156 48.125 -18.492188 48.3125 -18.703125 C 48.6875 -18.960938 49.003906 -19.222656 49.265625 -19.484375 C 49.867188 -20.128906 50.660156 -20.710938 51.640625 -21.234375 Z M 51.640625 -21.234375 "/></g></g></g><g fill="#e60c95" fill-opacity="1"><g transform="translate(245.179397, 231.392393)"><g><path d="M 47.640625 -21.9375 C 47.992188 -21.84375 47.988281 -21.34375 47.625 -20.4375 C 47.269531 -19.539062 46.53125 -18.390625 45.40625 -16.984375 C 44.125 -15.515625 41.992188 -13.851562 39.015625 -12 C 36.035156 -10.144531 32.585938 -8.445312 28.671875 -6.90625 C 24.765625 -5.363281 20.832031 -4.269531 16.875 -3.625 C 12.914062 -2.976562 9.300781 -3.125 6.03125 -4.0625 C 2.570312 -5.132812 0.582031 -7.390625 0.0625 -10.828125 C -0.1875 -12.785156 -0.0546875 -14.710938 0.453125 -16.609375 C 1.085938 -18.566406 2.082031 -20.289062 3.4375 -21.78125 C 4.789062 -23.28125 6.472656 -24.414062 8.484375 -25.1875 C 10.367188 -25.84375 12.328125 -26.09375 14.359375 -25.9375 C 16.390625 -25.789062 18.050781 -25.179688 19.34375 -24.109375 C 19.550781 -23.941406 19.65625 -23.707031 19.65625 -23.40625 C 19.65625 -23.101562 19.609375 -22.796875 19.515625 -22.484375 C 19.253906 -21.597656 18.828125 -21.179688 18.234375 -21.234375 C 17.640625 -21.296875 16.957031 -21.53125 16.1875 -21.9375 C 15.625 -22.238281 15.007812 -22.503906 14.34375 -22.734375 C 13.675781 -22.972656 12.984375 -23.046875 12.265625 -22.953125 C 10.253906 -22.640625 8.582031 -21.585938 7.25 -19.796875 C 6.175781 -18.296875 5.445312 -16.644531 5.0625 -14.84375 C 4.675781 -13.050781 4.832031 -11.429688 5.53125 -9.984375 C 6.507812 -8.140625 8.234375 -7.035156 10.703125 -6.671875 C 13.171875 -6.304688 16.007812 -6.484375 19.21875 -7.203125 C 22.425781 -7.929688 25.675781 -8.972656 28.96875 -10.328125 C 32.257812 -11.679688 35.273438 -13.117188 38.015625 -14.640625 C 40.765625 -16.160156 42.890625 -17.5625 44.390625 -18.84375 C 45.929688 -20.175781 46.832031 -21.050781 47.09375 -21.46875 C 47.25 -21.632812 47.363281 -21.753906 47.4375 -21.828125 C 47.507812 -21.898438 47.578125 -21.9375 47.640625 -21.9375 Z M 47.640625 -21.9375 "/></g></g></g></svg>